<svg width="28" height="28" viewBox="0 0 28 28" fill="none" xmlns="http://www.w3.org/2000/svg">
<path d="M10.6119 14.2856H8.78336C6.76358 14.2856 5.12622 14.8484 5.12622 16.9523C5.12622 18.0043 5.80845 18.8571 6.65003 18.8571H12.7453C13.5868 18.8571 14.2691 18.0043 14.2691 16.9523C14.2691 14.8484 12.6317 14.2856 10.6119 14.2856Z" stroke="#2797E8" stroke-linecap="round"/>
<path d="M6.2688 8.57139C6.2688 6.67785 7.80382 5.14282 9.69737 5.14282C11.5909 5.14282 13.1259 6.67785 13.1259 8.57139C13.1259 10.4649 11.5909 12 9.69737 12C7.80382 12 6.2688 10.4649 6.2688 8.57139Z" stroke="#2797E8" stroke-linecap="round"/>
<path d="M15.4119 14.2856C17.3054 14.2856 18.8404 14.8484 18.8404 16.9523C18.8404 18.0043 18.2008 18.8571 17.4119 18.8571" stroke="#2797E8" stroke-linecap="round"/>
<path d="M15.4119 12C17.3054 12 18.8404 10.4649 18.8404 8.57139C18.8404 6.67785 17.3054 5.14282 15.4119 5.14282" stroke="#2797E8" stroke-linecap="round"/>
</svg>
