<svg width="98" height="104" viewBox="0 0 98 104" fill="none" xmlns="http://www.w3.org/2000/svg">
<path d="M55.2998 50.1662L37.7422 40.0294L31.7274 50.4472L38.9242 54.6023L55.2998 50.1662Z" fill="#4d4d4d"/>
<path d="M31.996 70.4507L49.5565 80.5892L55.5712 70.1714L48.3715 66.0146L31.996 70.4507Z" fill="#4d4d4d"/>
<path d="M36.3603 34.2673L36.3574 34.2563L36.3514 34.2668C36.3514 34.2668 36.3583 34.2708 36.3603 34.2673Z" fill="#4d4d4d"/>
<path d="M36.3541 34.2573C36.3541 34.2573 36.3582 34.2635 36.3566 34.2664C37.1868 34.0697 38.0917 34.1596 38.8849 34.6175L62.6485 48.3375L54.1727 29.905L36.3495 34.2585L36.3541 34.2573Z" fill="#4d4d4d"/>
<path d="M33.0986 18.9508L36.377 34.2474L18.7523 39.3373L28.9369 21.6971C29.8451 20.124 31.415 19.1762 33.0986 18.9508Z" fill="#4d4d4d"/>
<path d="M18.7534 39.3405L20.6826 59.517L4.57625 63.896L18.7534 39.3405Z" fill="#4d4d4d"/>
<path d="M36.3776 34.2403C36.3776 34.2403 36.3772 34.2477 36.3801 34.2494C35.5622 34.4918 34.8236 35.0195 34.367 35.8104L20.6866 59.5056L18.7575 39.329L36.3822 34.239L36.3776 34.2403Z" fill="#4d4d4d"/>
<path d="M51.0742 86.6624L51.0771 86.6733L51.0831 86.6629C51.0831 86.6629 51.0762 86.6589 51.0742 86.6624Z" fill="#4d4d4d"/>
<path d="M55.9352 101.543L51.0819 86.666L33.2587 91.0195L50.9499 101.234C52.5276 102.144 54.3638 102.185 55.9352 101.543Z" fill="#4d4d4d"/>
<path d="M33.2547 91.014L24.7818 72.5832L8.6311 76.7975L33.2547 91.014Z" fill="#4d4d4d"/>
<path d="M51.079 86.6638C51.079 86.6638 51.0749 86.6575 51.0766 86.6546C50.2464 86.8513 49.3414 86.7614 48.5482 86.3035L24.7846 72.5835L33.2604 91.016L51.0836 86.6625L51.079 86.6638Z" fill="#4d4d4d"/>
<path d="M54.3342 101.969L51.0558 86.6725L68.6805 81.5825L58.4959 99.2227C57.5877 100.796 56.0178 101.744 54.3342 101.969Z" fill="#4d4d4d"/>
<path d="M68.68 81.5898L66.7491 61.4161L82.8554 57.0371L68.68 81.5898Z" fill="#4d4d4d"/>
<path d="M51.0555 86.6786C51.0555 86.6786 51.0559 86.6711 51.053 86.6694C51.8709 86.427 52.6094 85.8993 53.0661 85.1084L66.7465 61.4133L68.6756 81.5898L51.0509 86.6798L51.0555 86.6786Z" fill="#4d4d4d"/>
<path d="M47.8949 26.2768C47.878 26.3597 47.852 26.4451 47.8068 26.5234L47.6278 26.8333C46.7865 28.2906 44.9232 28.787 43.4618 27.9432C42.0004 27.0994 41.4986 25.2376 42.3399 23.7804L42.5189 23.4704C42.5641 23.3922 42.625 23.3269 42.6884 23.2708L36.4853 19.6894C34.9076 18.7786 33.0714 18.7382 31.5 19.3799L36.3533 34.2569L54.1765 29.9035L47.8949 26.2768Z" fill="#4d4d4d"/>
<path d="M75.6388 42.3028C75.6219 42.3857 75.5958 42.4711 75.5506 42.5493L75.3717 42.8593C74.5303 44.3165 72.6671 44.8129 71.2056 43.9692C69.7442 43.1254 69.2424 41.2636 70.0838 39.8063L70.2627 39.4963C70.3079 39.4181 70.3688 39.3529 70.4322 39.2968L54.1763 29.9114L62.6521 48.3439L78.8028 44.1295L75.6417 42.3044L75.6388 42.3028Z" fill="#4d4d4d"/>
<path d="M75.6059 40.8218L75.6444 40.7551C78.1483 36.4182 78.6466 31.4487 77.4311 26.9382C76.2155 22.4278 73.2849 18.3717 68.9354 15.8606C64.586 13.3494 59.608 12.8394 55.0941 14.042C50.5801 15.2445 46.5255 18.1608 44.0216 22.4977L42.9913 24.2823C42.3741 25.3513 42.7444 26.7162 43.8136 27.3335C44.8828 27.9508 46.2516 27.5862 46.8671 26.52L47.8975 24.7354C49.7859 21.4646 52.8443 19.2672 56.2549 18.3586C59.6656 17.45 63.4193 17.8326 66.6996 19.7265C69.9798 21.6203 72.188 24.6799 73.1065 28.0879C74.0249 31.4959 73.6511 35.2433 71.7627 38.5141L71.7243 38.5807L70.7341 40.2958C70.1169 41.3648 70.4872 42.7297 71.5564 43.347C72.6256 43.9643 73.9944 43.5996 74.6099 42.5335L75.6001 40.8184L75.6059 40.8218Z" fill="#4d4d4d"/>
</svg>
