<svg width="28" height="28" viewBox="0 0 28 28" fill="none" xmlns="http://www.w3.org/2000/svg">
<path d="M12 11V20" stroke="#2797E8" stroke-linejoin="round"/>
<path d="M20 7.42857V14.8186C20 15.4241 20 15.7268 19.849 15.9695C19.6979 16.2121 19.4263 16.3458 18.883 16.6131L12.883 19.5655C12.4495 19.7788 12.2327 19.8855 12 19.8855C11.7673 19.8855 11.5505 19.7788 11.117 19.5655L5.11699 16.6131C4.5737 16.3458 4.30206 16.2121 4.15103 15.9695C4 15.7268 4 15.4241 4 14.8186V7.42857M20 7.42857L12.7878 10.5195C12.3995 10.686 12.2053 10.7692 12 10.7692C11.7947 10.7692 11.6005 10.686 11.2122 10.5195L4 7.42857M20 7.42857L12.7878 4.33765C12.3995 4.17119 12.2053 4.08797 12 4.08797C11.7947 4.08797 11.6005 4.17119 11.2122 4.33765L4 7.42857" stroke="#2797E8" stroke-linejoin="round"/>
<path d="M15 12.2856L17 11.4285" stroke="#2797E8" stroke-linecap="round" stroke-linejoin="round"/>
<path d="M8 6L16 9" stroke="#2797E8" stroke-linecap="round" stroke-linejoin="round"/>
</svg>
